<?xml version="1.0" standalone="no"?>
<svg viewBox="-350 -150 1500 1500" xmlns="http://www.w3.org/2000/svg" style="width: 585px; height: 585px; justify-content: center; align-self: center; transform: scale(1, 1);"><rect x="-350" y="-150" width="100%" height="100%" fill="#ffffff" rx="30"></rect><g transform="rotate(0 421.6919822692871 582.2349700927734)"><g id="body_Tee_2" data-name="body/Tee 2" transform="translate(0 459)"><path id="_Skin" data-name="âœ‹ Skin" d="M9,748.678,0,567.066,10,389.888l716.472,56.879.751,4.868c5.975,38.911,10.534,72.027,13.553,98.428s4.579,46.825,4.64,60.712l0,.854a205.936,205.936,0,0,0,1.592,23.813c1.057,8.916,2.664,18.989,4.778,29.938,4.227,21.9,10.656,48.226,19.11,78.253l1.05,3.714ZM397.677,345.17c-62.268,0-135.087-.639-216.433-1.9,1.109-35.439,3.124-67.11,5.988-94.136,1.432-13.515,3.108-26.156,4.979-37.57s3.992-21.924,6.3-31.237a218.05,218.05,0,0,1,7.627-24.9,108.162,108.162,0,0,1,8.95-18.572,50.578,50.578,0,0,1,10.274-12.24,27.619,27.619,0,0,1,11.6-5.907l2.918-.645c12.307-2.688,23.395-4.712,33.176-6.5,28.034-5.117,46.552-8.5,58.481-20.81a53.47,53.47,0,0,0,7.956-10.726,84.148,84.148,0,0,0,5.8-12.552c3.3-8.811,5.616-18.361,7.859-27.6l0-.006c1.52-6.258,2.955-12.168,4.657-17.779.854-2.817,3.4-5.616,7.561-8.319a67.142,67.142,0,0,1,15.717-7.053,135.347,135.347,0,0,1,21.293-4.89A163.084,163.084,0,0,1,426.668,0c2.519,0,5.043.062,7.5.183A132.03,132.03,0,0,1,455.635,3.09a134.217,134.217,0,0,1,18.989,5.593,74.638,74.638,0,0,1,13.952,6.82c3.6,2.367,5.8,4.645,6.354,6.588,1.044,3.676,2.2,9.741,3.664,17.42,2.755,14.455,6.527,34.252,12.241,51.5,3.118,9.41,6.536,17.166,10.158,23.052A45.9,45.9,0,0,0,527.4,122.4a24.456,24.456,0,0,0,7.412,5.258c9.948,4.354,23.955,5.6,38.785,6.91,12.355,1.095,25.13,2.227,36.069,5.273a54.762,54.762,0,0,1,14.774,6.242,34.04,34.04,0,0,1,5.852,4.64,29.048,29.048,0,0,1,4.554,5.888c4.077,6.983,10.562,19.5,17.791,34.339,7.814,16.041,16.069,33.909,23.244,50.312,8.484,19.4,15.276,36.235,20.188,50.05,5.72,16.09,8.62,27.378,8.62,33.551,0,1.684-1.614,3.286-4.8,4.76a67.873,67.873,0,0,1-14.393,4.125c-12.734,2.527-32.1,4.662-57.57,6.347s-57.744,2.966-95.942,3.808S448.6,345.17,397.677,345.17Z" transform="translate(38 -39)" fill="#ffffff"></path><path id="_Ink" data-name="ðŸ– Ink" d="M163.386,736.337a5.056,5.056,0,0,1-4.239-2.41,43.035,43.035,0,0,1-5.816-14.449,128.28,128.28,0,0,1-2.378-15.845l-.366-3.685c-1.279-12.77-2.231-24.032-2.91-34.43-1.354-20.726-2.249-41.281-2.66-61.095-.429-20.69-.345-41.265.249-61.155.663-22.208,2.794-43.87,4.791-62.131.788-7.168,1.524-13.487,2.25-19.319l.014-2.287c0-.59,0-1.359-.024-2.083l-.2-6.2c-.158-4.934-.318-10.2-.383-15.521l-.027-3.105-.031-5.78a71.779,71.779,0,0,1-9.559-1.815c-1.742-.413-3.384-.8-4.91-1.085-6.656-1.243-13.61-2.639-20.67-4.15-13-2.8-26.378-6.176-40.89-10.33l-2.876-.826c-12.139-3.5-24.99-7.367-36.925-12.8a68.452,68.452,0,0,1-13.279-7.609c-.113,1.538-.256,3.091-.393,4.592-.157,1.709-.319,3.476-.436,5.208-.207,3.031-.436,6.11-.658,9.086l0,.052c-.247,3.311-.5,6.734-.729,10.132l-.411,6.118c-.643,9.712-1.277,20.141-1.559,30.6-1.432,52.371-1.136,94.938.931,133.96,1.26,24.029,2.977,45.892,5.25,66.84,1.062,9.837,2.364,21.423,3.97,32.78.621,4.369,1.451,8.8,2.253,13.088a194.74,194.74,0,0,1,3.086,20.492,8,8,0,0,1-2.015,6.229,9.755,9.755,0,0,1-7.2,2.9,10.46,10.46,0,0,1-5.689-1.63,8.6,8.6,0,0,1-3.607-4.994c-2.373-8.654-3.475-17.907-4.541-26.855-.4-3.352-.812-6.817-1.284-10.176l-.2-1.359c-1.741-11.873-3.3-24.689-4.76-39.181C2.278,623.533.838,600.7.276,578.246c-.567-22.662-.254-45.536.931-67.989.986-18.843,3.239-39.435,7.091-64.8l.379-2.478c.358-2.32.715-4.673,1.061-6.948,1.09-7.172,2.217-14.589,3.494-21.863l.644-3.589c.38-2.069.744-4.22,1.1-6.3A162.372,162.372,0,0,1,19,385.167l-.728-.671a26.705,26.705,0,0,1-3.911-4.318,7.771,7.771,0,0,1-4.764-2.372,7.276,7.276,0,0,1-1.7-5.618,120.325,120.325,0,0,1,4.328-22.663c2.1-7.511,4.662-14.929,7.143-22.1l.116-.336q.328-.948.653-1.889a434.693,434.693,0,0,1,18.03-44.24A413.714,413.714,0,0,1,81.714,209.1a406.365,406.365,0,0,1,57.242-61.51,362.684,362.684,0,0,1,35.281-27.29c6.283-4.235,12.659-8.188,18.951-11.75,6.576-3.723,13.264-7.135,19.878-10.14a171.454,171.454,0,0,1,41.719-13.34,150.013,150.013,0,0,1,21.73-2.451,14.231,14.231,0,0,1,7.336-1.979,20.67,20.67,0,0,1,11.353,3.788l.311.212h.011l1.469.29a.339.339,0,0,1,.266.346.361.361,0,0,1-.266.374.19.19,0,0,0-.07.02,27.519,27.519,0,0,1,2.66,2.38,7.467,7.467,0,0,1,2.216,4.481,7.858,7.858,0,0,1-.9,4.429,66.9,66.9,0,0,1,10.263,12.417c2.96,4.489,5.633,9.348,8.219,14.048l.037.067.72,1.308a96.71,96.71,0,0,0,10.287,15.075,99.26,99.26,0,0,0,12.933,12.885A141.192,141.192,0,0,0,363.8,166.822,150.328,150.328,0,0,0,410.955,183.9a140.823,140.823,0,0,0,24.991,2.275,123.269,123.269,0,0,0,36.82-5.463,100.312,100.312,0,0,0,22.9-10.52A104.33,104.33,0,0,0,515.4,154.358a98.337,98.337,0,0,0,15.148-20.074,86.962,86.962,0,0,0,9.144-23.227,8.776,8.776,0,0,1-2.96.53,7.7,7.7,0,0,1-2.61-.45,18.271,18.271,0,0,1-9.086-7.571,63.6,63.6,0,0,1-5.4-11.04c-.246-.6-.5-1.209-.75-1.809l-.16-.381a177.09,177.09,0,0,1-8.08-23.44,129.156,129.156,0,0,1-3.96-25.01,87.66,87.66,0,0,1,.057-9.916l.151-2.733q.01-.222.02-.445l0-.055c.1-2.27.2-4.617,2.14-6.14a.347.347,0,0,1,.211-.083.286.286,0,0,1,.129.033c2.01.965,2.618,2.811,3.261,4.766l.009.026c.081.244.164.5.25.748.725,2.11,1.536,4.224,2.321,6.268l0,.01c.448,1.165.91,2.37,1.355,3.572.473,1.284.942,2.569,1.463,4l0,.01c1.884,5.161,3.832,10.5,5.994,15.674,2.261,5.433,5.323,12.58,8.96,19.689,1.7,3.337,3.5,6.533,5.04,9.22.407.715.8,1.51,1.214,2.351l0,.006h0a25.91,25.91,0,0,0,2.684,4.633,12,12,0,0,1,.49-1.79,5.95,5.95,0,0,0-.6.329.426.426,0,0,1-.228.067.491.491,0,0,1-.416-.258.433.433,0,0,1,0-.449,7.872,7.872,0,0,1,3.26-3.029c.313-.348,1.217-.525,2.684-.525,3.6,0,10.541,1.092,19.04,2.995,9.123,2.043,19.5,4.894,29.222,8.026,14.546,4.687,40.638,14.219,51.954,25.393a299.479,299.479,0,0,1,26.677,30.21,326,326,0,0,1,22.309,33.029A366.262,366.262,0,0,1,714.634,222.8c5.314,11.752,10.224,24.193,14.593,36.977,6.8,19.885,13.32,40.24,19.626,59.926l.022.069c2.468,7.7,5.02,15.67,7.552,23.495,4.9,15.166,10,30.533,14.924,45.394l.022.066c4.637,13.99,9.432,28.457,14.054,42.71a10.224,10.224,0,0,1,.406,4.693,10.841,10.841,0,0,1-1.577,4.175,14.282,14.282,0,0,1-7.059,5.613c-11,4.061-21.918,7.809-32.44,11.14a490.62,490.62,0,0,1,11.651,61.85c2.067,16.145,3.476,32.689,4.84,48.688v.007c1.13,13.254,2.3,26.96,3.834,40.38,1.723,15.056,3.737,28.144,6.157,40.015,2.117,10.383,4.8,20.446,7.154,28.921l.615,2.209c.35,1.244.705,2.536,1.019,3.676l0,.008c1.191,4.33,2.424,8.807,3.939,13.107.526,1.489,1.111,3.009,1.676,4.478a80.154,80.154,0,0,1,3.325,9.9,14.688,14.688,0,0,1-.483,8.526,12.119,12.119,0,0,1-5.537,6.434,10.392,10.392,0,0,1-5,1.252,10.2,10.2,0,0,1-4.612-1.074,8.413,8.413,0,0,1-3.47-3.238,7.709,7.709,0,0,1-.98-2.9c-.406-.865-.765-1.723-1.069-2.551-.109-.29-.216-.618-.34-1.031l-.311-1.039c-.764-2.494-1.474-5.029-2.16-7.48-1.147-4.037-2.281-7.991-3.555-11.983l-.644-1.986c-3.18-9.682-6.007-19.425-8.4-28.96-1.948-7.773-3.6-15.767-5.064-24.439-1.3-7.724-2.413-15.809-3.4-24.716-1.837-16.542-2.951-33.441-4.028-49.784v-.021c-.176-2.667-.358-5.425-.539-8.135l-.125-1.854c-1.307-19.272-1.993-34.127-2.224-48.167-.288-17.495.175-33.233,1.414-48.113l-.365.119-.365.111c-3.7,1.132-7.117,2.149-10.44,3.11l-.076.028c-.083.031-.16.059-.244.082-2.26.7-4.57,1.36-6.864,1.959l-1.4.361-.99.27-1.042.3-.918.269a31.483,31.483,0,0,1-8.715,1.693c-.159,0-.319,0-.474-.008a111.542,111.542,0,0,1-17.141,1.48c1.874,30.637,3.9,58.689,6.18,85.76,2.525,29.958,5.949,60.053,8.959,85.91,1.765,15.2,3.512,29.04,5.341,42.31,1.093,7.964,2.073,14.638,3.3,21.32.267,1.443.582,2.936.886,4.381,1.249,5.931,2.54,12.059,1.395,17.919a.28.28,0,0,0-.09-.021,8.2,8.2,0,0,1-3.991,5.331,8.716,8.716,0,0,1-4.4,1.164,9.333,9.333,0,0,1-4.451-1.126,8.354,8.354,0,0,1-3.31-3.228c-.2-.348-.391-.712-.57-1.08a20.9,20.9,0,0,1-8.29,1.46l-43.94.44c-18.156.182-39.256.4-59.92.7-19.965.294-40.108.605-59.588.906h-.024c-42.141.651-85.717,1.325-128.574,1.844l-23.523.27c-11.527.121-23.25.283-34.587.439h-.079c-23.1.319-46.995.649-70.483.649h-.712c-19.692,0-36.229-.083-52.93-.491-8.075-.2-16.082-.5-25.619-.89l-1.508-.068c-.775-.038-1.569-.081-2.336-.122-2.712-.146-5.516-.3-8.284-.3a44.657,44.657,0,0,0-10.1.979A5.424,5.424,0,0,1,163.386,736.337ZM321.4,96.612a8.427,8.427,0,0,1-6.129-2.919,12.661,12.661,0,0,1-3.13-6.526,9.366,9.366,0,0,1,.868-5.893,8.406,8.406,0,0,1,5.136-4.018,70.38,70.38,0,0,0,18.332-13.781,97.31,97.31,0,0,0,13.907-18.288,132.356,132.356,0,0,0,10.621-21.85c1.291-3.5,2.361-7.134,3.4-10.643l0-.006c1.208-4.1,2.457-8.331,4.062-12.381A.509.509,0,0,1,368.917,0a.347.347,0,0,1,.32.207,38.833,38.833,0,0,1,3.525,12.736,58.09,58.09,0,0,1-.245,13.762,87.845,87.845,0,0,1-7.881,25.952,91.78,91.78,0,0,1-14.011,21.033,126.528,126.528,0,0,1-18.468,16.976c-1.8,1.375-3.721,2.784-5.71,4.189A8.713,8.713,0,0,1,321.4,96.612Z" transform="translate(27 -16.908)"></path></g><g transform="translate(225 0)"><g><g id="head_Long" data-name="head/Long"><path id="_Skin" data-name="âœ‹ Skin" d="M395.9,175.053c-3.79-62.2-23.974-132.723-83.378-163.263C181.564-40.768,9.38,91.588.264,226.8c-3.178,46.284,22.52,96.859,69.481,109.727,10.441,13.833,26.231,22.281,41.816,29.613,185.627,96.307,305.534,18.02,284.34-191.087Z" transform="translate(36 95)" fill="#ffffff"></path><path id="_Ink" data-name="ðŸ– Ink" d="M559.189,199.517q-9.84-27.33-20.78-54.24c-7.1-17.46-13.513-35.3-22.33-51.93-52.66-99.34-148.42-99.34-197.92-86.36-25.67-11.06-73.751-7.94-100.48,2.04C174.407,25.184,121.658,88.742,103.623,117.3,63.8,180.347,38.954,264.264,65.4,337.12a164.141,164.141,0,0,0,12.83,26.84,104.679,104.679,0,0,1-10.713,12.2c-11.848,11.722-23.7,23.058-33.931,36.279A180.383,180.383,0,0,0,8.71,454.951C-3.126,484-3.7,516.9,11.952,544.62c13.614,24.12,37.731,42.081,64.9,43.794,1.395.194,2.792.372,4.195.513a78.548,78.548,0,0,0,13,16.15c15.35,14.6,51.94,22.09,72.81,22.57,1.07.86,2.15,1.72,3.23,2.57,12.77,10.05,26.17,20.19,40.83,27.34,9.93,4.85,22.95,8.9,33.31,5.4,4.7,3.14,12.41,2.48,17.07-.09,7.66-4.22,13.89-11.82,17.68-19.6,9.19-18.89,6.98-39.56,4.62-59.74-2.6-22.29-5.1-44.59-7.64-66.88-1.99-17.43-4.07-35.15-9.37-51.94a119.344,119.344,0,0,0-10.97-24.92,4.094,4.094,0,0,0-.09-1.94c-1.52-4.94-4.66-7.53-8.38-10.89-.48-.43-.96-.87-1.43-1.32a45.024,45.024,0,0,0-5.98-5.76c-.82-.83-1.63-1.67-2.44-2.51a203.43,203.43,0,0,1-18.74-22.4c-5.48-7.7-10.43-15.74-15.14-23.93-4.79-8.33-7.96-17.52-12.74-25.79a1.311,1.311,0,0,0-2.03-.26c-1.48,1.53-2.43,3.23-2.25,5.02l-.74.11a5.029,5.029,0,0,0-6.15-4.31c-5.06.88-9.22,1.21-13.6-.47.77-5.11,1.48-10.23,2.18-15.36,1.28-9.44,2.47-18.91,3.49-28.38a41.184,41.184,0,0,1,7.32,2.52,35.28,35.28,0,0,1,9.41,6.12c2.72,2.5,4.6,5.87,7.92,7.61a5.039,5.039,0,0,0,7.31-5.62c-2.27-8.73-15.12-13.73-23.07-15.38a36.79,36.79,0,0,0-8.31-.75q.945-9.12,1.65-18.25.33-4.32.61-8.65a45.449,45.449,0,0,1,19.23-1.55c2.12,1.69,4.24,3.36,6.29,5.05,6.51,5.38,12.99,10.79,19.39,16.3.58.49,1.15.98,1.73,1.48,3.8,3.27,8.54.03,7.9-4.6-5.22-37.94,18.02-68.12,45.23-91.5,30.12-25.89,84.88-28.9,120.7-73.75,16.5,3.358,53.33,13.33,68.53,37.55,21.28,33.94,18.5,64.35,20.12,102.85,1.62,38.53,5.74,78.72-3.01,116.71-8.07,35.03-29.92,64.96-63.82,78.72-.84.34-1.69.67-2.54.99a102.614,102.614,0,0,1-55.1,5c-20.41-3.86-37.45-13.2-54.43-24.69-.98-.65-2.41.69-1.67,1.67,22.38,29.66,66.34,39.57,101.21,31.74q2.445-.555,4.86-1.21a91.713,91.713,0,0,0,3.93,68.89,92.747,92.747,0,0,0,26.78,33.48c12.51,9.88,28.03,17.86,36.71,31.73,7.95,12.71,5.59,26.99-8.02,34.33-3.43,1.86-4.75,7.87-1.35,10.51,1.3,1,2.6,2.02,3.93,3.02,7.62,5.75,28.55,16.55,31.94,16.95,30.1,3.57,50.34-18.53,63.31-44.6,15.23-30.6,11.27-67.89-5.51-97.03-13.46-23.38-39.97-46.42-29.43-76.01,3.76-10.57,11.45-19.58,18.92-27.72,8.52-9.27,17.68-17.95,25.85-27.55,8.12-9.53,15.32-19.9,19.34-31.86,5.87-17.48,2.95-36.38-1.46-53.83C584.529,272.807,572.259,235.847,559.189,199.517Z" transform="translate(-85 31.843)"></path></g></g><g transform="translate(159 186)"><g><path d="M145.63 0.473197L144.193 0.179116C142.503 -0.15929 140.804 -0.0161244 139.311 0.591153C137.847 1.18684 136.572 2.2242 135.68 3.72083C134.495 5.71373 134.337 7.38618 134.887 9.59525C135.311 11.3022 136.242 12.5864 137.46 13.5139C138.744 14.4911 140.37 15.0612 142.06 15.2595C149.854 16.175 157.53 17.8896 164.992 20.3235C168.488 21.4643 171.788 23.0096 175.058 24.6132L177.877 26.002C180.477 27.2735 183.163 28.499 186.557 29.3885C186.824 29.4584 187.087 29.5243 187.349 29.5865C188.29 29.2909 188.45 28.9329 188.649 28.6733L188.73 28.5721C188.972 28.2679 189.271 27.8025 188.988 25.6306C181.733 10.5814 162.083 4.00922 146.583 0.675332L145.63 0.473197ZM43.5878 4.83023L45.4652 4.50163L46.4275 4.33853C52.0515 3.40866 58.7184 2.78671 62.6028 7.20123C64.7819 9.67723 65.5318 14.2792 62.6028 16.6492C58.7671 19.7539 54.6298 19.6513 50.2182 19.5419C48.7043 19.5044 47.1582 19.466 45.5808 19.5562C40.4928 19.8482 35.6028 20.6902 30.7018 22.0912C19.9498 25.1642 11.1888 30.7742 2.00585 36.9342C0.800849 37.7422 -0.429151 36.2012 0.145849 35.0742C5.44685 24.6912 15.7198 16.1622 26.0098 10.9632C31.5019 8.18823 37.5118 5.88623 43.5878 4.83023ZM52.2374 50.7155C50.6929 49.6018 48.9969 48.9999 47.2237 48.9999C45.4506 48.9999 43.7546 49.6018 42.2101 50.7155C40.69 51.8116 39.3138 53.4113 38.1676 55.4066C35.9987 59.1823 34.6427 64.3956 34.6427 70.1599C34.6427 75.9243 35.9987 81.1376 38.1676 84.9133C39.3138 86.9085 40.69 88.5083 42.2101 89.6044C43.7546 90.7181 45.4506 91.3199 47.2237 91.3199C48.9969 91.3199 50.6929 90.7181 52.2374 89.6044C53.7575 88.5083 55.1337 86.9085 56.2799 84.9133C58.4488 81.1376 59.8047 75.9243 59.8047 70.1599C59.8047 64.3956 58.4488 59.1823 56.2799 55.4066C55.1337 53.4113 53.7575 51.8116 52.2374 50.7155ZM159.464 48.9999C161.237 48.9999 162.933 49.6018 164.478 50.7155C165.998 51.8116 167.374 53.4113 168.52 55.4066C170.689 59.1823 172.045 64.3956 172.045 70.1599C172.045 75.9243 170.689 81.1376 168.52 84.9133C167.374 86.9085 165.998 88.5083 164.478 89.6044C162.933 90.7181 161.237 91.3199 159.464 91.3199C157.691 91.3199 155.995 90.7181 154.45 89.6044C152.93 88.5083 151.554 86.9085 150.408 84.9133C148.239 81.1376 146.883 75.9243 146.883 70.1599C146.883 64.3956 148.239 59.1823 150.408 55.4066C151.554 53.4113 152.93 51.8116 154.45 50.7155C155.995 49.6018 157.691 48.9999 159.464 48.9999Z" transform="translate(59.00005 52.00027)" fill-rule="evenodd" stroke="none"></path></g></g><g transform="translate(123 338)"></g><g transform="translate(47 241)"><g><path d="M400.241 22.4717C406.555 19.4817 413.812 19.6607 420.603 20.5487C434.349 26.9267 404.861 34.3147 401.349 27.5287C404.801 52.9717 394.935 94.8897 366.724 108.133C334.13 124.07 298.773 99.8287 300.056 60.9787C293.067 59.2817 297.925 39.7137 300.739 31.7647C288.447 29.8527 276.738 28.7257 264.894 32.4797C271.42 50.8857 248.187 106.288 225.854 117.325C208.541 129.283 169.496 123.951 153.944 105.365C142.844 91.1707 137.3 58.2287 143.442 35.3387C143.388 35.3147 143.332 35.2967 143.279 35.2697C142.912 38.8697 118.056 38.4687 119.298 32.3037C83.5946 32.9447 49.0266 38.4207 13.6856 42.2807C9.41771 42.6777 9.20869 45.7037 9.00443 48.6607C8.82951 51.1931 8.65807 53.675 5.94363 54.4117C-4.52237 54.6617 0.226628 36.3637 9.44663 34.6657C18.2509 33.7459 27.1162 32.5506 36.011 31.3514C64.1217 27.5615 92.5269 23.7319 120.232 28.4287C124.112 23.4993 131.1 25.2524 136.795 26.6809C138.398 27.083 139.898 27.4593 141.198 27.6537C145.902 -0.109269 221.595 1.54173 246.677 12.8057C273.452 9.72473 301.309 7.96173 327.861 5.72573C344.673 0.333732 364.25 -2.44827 381.745 2.80973C384.166 2.67632 384.439 3.06209 384.978 3.82285C385.074 3.95736 385.177 4.10358 385.303 4.26073C392.194 7.30073 398.297 14.2087 400.241 22.4717ZM391.09 53.2827C381.556 117.772 315.002 124.904 303.177 60.8817C305.075 60.0507 306.44 58.4147 306.155 55.2387C306.088 41.2867 310.419 26.5407 323.005 18.7817C336.011 10.7757 351.232 9.98173 366.283 10.1837C395.005 9.49973 394.401 33.5067 391.09 53.2827ZM264.265 30.6657C272.34 25.1737 283.744 24.8557 292.758 25.2357C295.861 25.4177 300.059 25.2717 302.99 26.8347C306.149 20.6497 311.009 15.2997 316.233 11.7387C313.192 11.9693 310.141 12.2092 307.085 12.4496C288.207 13.9342 269.092 15.4374 250.449 14.8917C256.277 18.3047 262.045 24.6877 264.265 30.6657ZM253.026 60.1197C228.031 146.156 165.64 108.656 158.838 97.6297C146.569 79.3837 144.261 35.0297 154.948 23.1707C167.469 14.393 184.251 14.6491 199.84 14.8869C203.297 14.9396 206.695 14.9915 209.975 14.9437C243.176 15.3917 266.756 25.3237 253.026 60.1197Z" transform="translate(-1.999528 9.999668)" fill-rule="evenodd" stroke="none"></path></g></g></g></g></svg>